<svg width="86" height="56" viewBox="0 0 86 56" fill="none" xmlns="http://www.w3.org/2000/svg">
<path d="M18.1897 53.3217V50.7043H0.742188V47.9043H4.08319V16.4956C4.08319 15.6434 3.89758 15.0347 3.58823 14.913C3.58823 14.913 3.15514 14.7912 1.36089 14.7912H0.742188V12.113H18.1278V9.31299H22.5206V24.1043H18.1278V19.5999C18.0041 17.0434 17.6328 16.0086 17.3235 15.6434C17.0141 15.2173 16.581 15.0347 15.9623 14.913C15.2199 14.7912 14.1681 14.7304 12.9307 14.7304H10.2084V23.2521H11.9407V18.5652H16.2098V31.9565H11.9407V28.913C11.9407 26.9043 11.1364 26.2347 10.2084 25.9912V47.9043H13.3638C14.4774 47.9043 15.3436 47.8434 16.0861 47.7217C16.7048 47.5999 17.1379 47.3565 17.3854 46.9304C17.6328 46.5043 18.1278 44.9826 18.1278 39.2608V38.6521H22.5206V53.3217H18.1897Z" fill="white"/>
<path d="M32.6056 51.5564C29.8833 51.5564 27.7179 50.339 26.0474 47.9042C24.5006 45.5912 23.6963 42.5477 23.6963 38.7129C23.6963 35.2433 24.4387 32.2607 25.8618 29.826C27.4085 27.2086 29.4502 25.8694 31.9869 25.8694C33.9668 25.8694 35.6373 26.4173 36.8747 27.5738C36.6891 25.626 36.3179 23.9825 35.8848 22.5825C34.8949 19.7216 33.4718 18.1999 31.8013 18.1999C29.8215 18.1999 29.4502 19.7216 29.4502 20.939C29.4502 21.3042 29.6359 21.852 29.8833 22.4607L30.6877 23.9825H28.7078C28.0272 23.9825 27.4704 23.9825 26.9136 24.0433L26.3567 24.1042L25.9855 23.6173C25.3049 22.7651 24.9956 21.6694 24.9956 20.5129C24.9956 19.1129 25.6143 17.8347 26.7898 16.5564C28.0272 15.339 29.6977 14.6694 31.8013 14.6694C35.8229 14.6694 38.6071 17.3477 40.0301 22.5216C40.8344 25.626 41.2675 30.4955 41.2675 37.0086C41.2675 41.026 40.5869 44.3738 39.2258 46.9912C37.6172 50.0346 35.3898 51.5564 32.6056 51.5564ZM32.6056 28.9129C31.1826 28.9129 30.069 30.9825 29.574 32.1999C28.8934 33.7825 28.8315 35.6086 28.8315 38.652C28.8315 40.5999 28.9553 43.0955 29.8833 45.0433C30.8114 47.1129 31.8013 48.2694 32.6675 48.2694C35.1423 48.2694 36.4416 44.6781 36.4416 37.6173C36.4416 35.426 36.3797 33.2955 35.5754 31.7129C34.5236 29.9477 33.4718 28.9129 32.6056 28.9129Z" fill="white"/>
<path d="M73.5016 50.7041V48.0259H76.162V37.4954L72.0786 46.6867L67.1908 37.3737V46.565C67.1908 47.2345 67.3764 47.6606 67.6858 47.8432C67.8095 47.9041 68.3045 48.0867 69.6656 48.0867H70.2843V50.765H60.5088V48.0867H63.3548V30.1302C63.3548 29.3998 63.1692 29.1563 63.1073 29.1563C63.0455 29.1563 62.798 29.0345 61.4987 29.0345H60.88V26.478H67.6858L72.4498 36.0345L76.7807 26.478H83.7721V29.0345H81.6685V46.8085C81.6685 47.6606 81.7922 47.9041 81.8541 47.965C82.0397 47.965 82.4728 47.965 83.834 47.965H84.4527V50.6432H73.5016V50.7041Z" fill="white"/>
<path d="M51.6001 51.4345C48.9396 51.4345 46.7742 50.2171 45.1655 47.8432C43.6188 45.591 42.8145 42.5476 42.8145 38.7737V38.6519V38.591C42.8145 34.8171 43.6188 31.7737 45.1655 29.5215C46.7742 27.1476 48.9396 25.9302 51.6001 25.9302C54.2605 25.9302 56.426 27.1476 58.0346 29.5215C59.5814 31.7737 60.3857 34.8171 60.3857 38.591V39.6258L59.0245 39.6867H47.7641C47.7641 41.5128 47.9497 43.4606 48.6922 45.2258C49.6202 47.4171 51.0432 48.391 51.9713 48.391C52.8993 48.391 53.6418 48.2084 54.508 46.1389C55.1267 44.7997 55.1886 42.9737 55.1886 42.6084L55.2504 41.6954H60.1382L60.0145 42.7302C60.0145 42.7302 59.5814 45.7737 58.0346 48.0258C56.4878 50.3389 54.3224 51.4345 51.6001 51.4345ZM55.3123 36.4606C55.1886 34.9997 55.0029 33.4171 54.508 32.078C53.6418 29.9476 52.4044 29.0345 51.6001 29.0345C50.7339 29.0345 49.5583 29.9476 48.754 32.078C48.3209 33.2954 48.0116 34.7563 47.8878 36.5215H55.3123V36.4606Z" fill="white"/>
<path d="M70.0995 25.4434C69.1096 25.4434 68.1816 25.3217 67.1916 25.1391C65.583 24.8347 60.1384 23.4347 58.3441 19.4782C57.6636 18.0173 57.7254 16.5564 58.4679 15.3391C59.4578 13.5738 61.747 12.2347 64.2218 11.9304C64.8406 11.8695 65.5211 11.8086 66.2017 11.8086C69.1715 11.8086 71.8938 12.5999 73.688 13.2086C74.1211 13.3912 74.3686 13.6347 74.3067 13.8782C74.3067 14.0608 74.1211 14.1825 73.8118 14.1825C73.688 14.1825 73.5024 14.1825 73.3787 14.1217C71.1513 13.3304 68.924 12.9043 66.8823 12.9043C66.4492 12.9043 65.9542 12.9043 65.583 12.9651C63.7888 13.1477 61.3139 14.1217 60.2003 15.7651C59.5816 16.6782 59.4578 17.713 59.7672 18.8086C60.819 22.0347 64.5312 23.8608 67.7485 24.226C68.3053 24.2869 68.8621 24.3477 69.3571 24.3477C72.8837 24.3477 76.2247 23.0086 78.947 20.3912C79.0089 20.3304 79.1945 20.2695 79.3182 20.2695C79.6895 20.2695 80.3701 20.513 80.4938 20.8782C80.5557 20.9999 80.4938 21.1825 80.4319 21.3043C77.5859 23.9217 73.8736 25.4434 70.0995 25.4434ZM70.9657 23.6782C70.6564 23.6782 70.347 23.4347 70.347 23.1912C70.347 23.0086 70.4089 22.826 70.6564 22.7651C72.2031 22.2782 73.5643 21.1217 74.4923 19.6608C74.5542 19.5391 74.7398 19.4173 74.9254 19.4173C75.1729 19.4173 75.4204 19.5391 75.4823 19.7217C75.5441 19.8434 75.5441 20.026 75.4823 20.2086C74.4923 21.8521 72.8837 23.1304 71.1513 23.6782C71.0895 23.6782 71.0276 23.6782 70.9657 23.6782ZM66.7585 23.2521C66.4492 23.2521 66.2017 23.0086 66.1398 22.7651C66.1398 22.5825 66.2636 22.3391 66.5729 22.3391C67.8103 22.1564 69.0477 21.3043 69.7902 20.1477C69.8521 20.026 70.0377 19.9651 70.2233 19.9651C70.4708 19.9651 70.7182 20.0869 70.842 20.2695C70.9039 20.3912 70.9039 20.5738 70.842 20.7564C69.9758 22.1564 68.4909 23.0695 66.8823 23.313L66.7585 23.2521ZM63.665 21.5478C63.3557 21.5478 63.0463 21.2434 63.0463 20.9391C63.0463 20.7564 63.17 20.5738 63.4794 20.5738C64.4075 20.5738 65.2736 20.1477 65.8923 19.4782C65.9542 19.3564 66.1398 19.2956 66.2636 19.2956C66.5111 19.2956 66.7585 19.4173 66.8823 19.6608C66.9441 19.7825 66.9441 19.9651 66.8204 20.0869C66.078 20.9999 64.9024 21.5478 63.665 21.5478ZM82.3499 19.9043C81.4218 19.9043 80.6794 19.3564 80.3082 18.4434C80.1226 18.0173 79.9988 17.5912 79.937 17.1043C78.3283 18.2608 76.4103 18.9912 74.0593 19.2956C72.8837 19.4782 71.5844 19.5391 70.347 19.5391C67.8722 19.5391 65.3974 19.2347 62.9844 18.626C62.8607 18.5651 62.1182 18.3217 62.1182 17.8956C62.1182 17.8347 62.1801 17.6521 62.4895 17.6521C62.6132 17.6521 62.737 17.6521 62.8607 17.713C65.0262 18.2608 67.3154 18.5651 69.4808 18.5651C70.842 18.5651 72.1413 18.4434 73.3168 18.2608C75.9154 17.7738 77.9571 16.8608 79.3182 15.5217C78.019 15.0956 75.7916 14.2434 75.5441 12.9043C75.4204 12.2956 75.7916 11.6869 76.5341 11.0782C76.6578 11.0173 76.7816 10.9564 76.9672 10.9564C77.3384 10.9564 78.019 11.1999 78.1427 11.5651C78.2046 11.7477 78.1427 11.9304 78.019 11.9912C77.3384 12.4782 77.1528 12.8434 77.2765 13.1477C77.524 13.513 77.9571 13.7564 78.3902 13.9391C78.8852 14.1825 79.5039 14.3651 80.1226 14.5477H80.1844C81.7312 12.3564 82.288 9.55645 81.7931 5.72166V5.59992L81.8549 5.47818C81.9168 5.41731 82.0406 5.35645 82.1643 5.35645C82.1643 5.35645 83.4636 5.41731 83.5254 6.02601C84.0204 10.226 83.4017 13.3912 81.5456 15.5825C81.5456 16.1912 81.6075 16.7999 81.6693 17.3477C81.7312 17.7738 81.8549 18.2608 82.0406 18.626C82.288 18.5043 82.4736 18.3825 82.7211 18.1999C82.8449 18.0782 82.9686 18.0782 83.1542 18.0782C83.5873 18.0782 84.206 18.3825 84.3298 18.6869C84.3916 18.8695 84.3298 19.0521 84.206 19.1738C83.6492 19.5999 82.9686 19.9043 82.3499 19.9043ZM70.4089 18.1999C70.1614 18.1999 69.8521 18.0782 69.7902 17.8347C69.2952 16.6782 68.2434 15.7043 67.006 15.2782C66.6967 15.1564 66.5729 14.913 66.6348 14.7304C66.6967 14.4869 66.8823 14.3651 67.1298 14.3651C67.1916 14.3651 67.2535 14.3651 67.3772 14.426C68.9859 14.9738 70.347 16.1912 70.9039 17.6521C70.9657 17.8347 70.9039 17.9564 70.9039 18.0173C70.7801 18.1391 70.5945 18.1999 70.4089 18.1999ZM66.5729 18.1391C66.3254 18.1391 66.0161 18.0173 65.9542 17.7738C65.6449 16.9217 64.9024 16.313 64.0362 16.2521C63.7269 16.2521 63.4794 15.9477 63.4794 15.7043C63.4794 15.5217 63.665 15.2782 63.9744 15.2782H64.0362C65.3974 15.3999 66.5729 16.313 67.006 17.5912C67.0679 17.7738 67.006 17.8956 66.9441 17.9564C66.8823 18.0782 66.7585 18.1391 66.5729 18.1391ZM74.3067 17.6521C74.0593 17.6521 73.8736 17.5304 73.7499 17.4086C72.9456 16.0695 71.5226 15.0347 69.8521 14.5477C69.5427 14.426 69.419 14.1825 69.4808 13.9999C69.5427 13.7564 69.7283 13.6347 69.9758 13.6347C70.0377 13.6347 70.0995 13.6347 70.1614 13.6956C72.0794 14.3043 73.7499 15.5217 74.7398 17.0434C74.8636 17.226 74.8017 17.4086 74.8017 17.4695C74.678 17.5304 74.5542 17.6521 74.3067 17.6521Z" fill="white"/>
<path d="M18.8088 12.661H1.36133V14.1219C2.72248 14.1219 3.5268 14.1827 3.83615 14.3654C4.39298 14.6697 4.64047 15.3393 4.64047 16.4958V48.5132H1.36133V50.0958H18.7469V52.7132H21.9023V39.261H18.7469C18.7469 43.7045 18.4995 46.3827 17.9426 47.2349C17.5714 47.7827 17.0146 48.148 16.2102 48.2697C15.4059 48.3914 14.4779 48.4523 13.3642 48.4523H9.59011V25.3219C11.57 25.4436 12.498 26.6001 12.498 28.9132C12.498 29.1567 12.498 29.5827 12.498 30.0697C12.498 30.6175 12.498 31.0436 12.498 31.348H15.5297V19.1741H12.498V23.861H9.59011V14.1219H12.9311C14.2304 14.1219 15.2822 14.1827 16.0865 14.3045C16.8908 14.4262 17.4477 14.7306 17.8808 15.2784C18.3757 15.948 18.6851 17.4088 18.8088 19.6001C18.8088 19.7219 18.8088 20.5132 18.8088 23.4958H21.9642V9.92188H18.8088V12.661Z" fill="#007934"/>
<path d="M31.8011 15.2783C29.8831 15.2783 28.3364 15.8261 27.2227 16.9827C26.1709 18.0783 25.6141 19.2957 25.6141 20.5131C25.6141 21.5479 25.9234 22.4609 26.4803 23.2522L26.604 23.4348H26.8515C27.4702 23.374 28.027 23.374 28.6457 23.374H29.6357L29.3263 22.7044C28.9551 22.0348 28.7695 21.4261 28.7695 20.9392C28.7695 19.9044 29.0788 17.5914 31.7393 17.5914C33.6572 17.5914 35.2659 19.2957 36.3795 22.4001C37.0601 24.2261 37.4313 26.6001 37.5551 29.4609C36.3795 27.5131 34.4616 26.4783 31.9249 26.4783C29.6357 26.4783 27.7795 27.6957 26.3565 30.1305C24.9335 32.4435 24.2529 35.3653 24.2529 38.7131C24.2529 42.3653 24.9954 45.3479 26.4803 47.5392C28.027 49.7914 30.0069 50.9479 32.4817 50.9479C35.0803 50.9479 37.122 49.5479 38.545 46.7479C39.8443 44.2522 40.5249 40.9653 40.5249 37.0696C40.5249 30.6175 40.0918 25.8088 39.2875 22.7653C38.1119 17.774 35.5134 15.2783 31.8011 15.2783ZM32.6054 48.8783C31.4918 48.8783 30.3781 47.6609 29.2644 45.287C28.3364 43.2783 28.2126 40.6609 28.2126 38.6522C28.2126 35.5479 28.3364 33.7218 29.017 32.0174C29.6975 30.374 30.8731 28.3653 32.6054 28.3653C34.0903 28.3653 35.2659 30.0696 36.0702 31.5305C36.9364 33.2348 36.9983 35.4261 36.9983 37.6783C36.9364 45.2261 35.5134 48.8783 32.6054 48.8783Z" fill="#007934"/>
<path d="M81.6693 48.5739C81.2981 48.4521 81.0506 47.8434 81.0506 46.8087V28.426H83.0923V27.0869H77.0909L72.3887 37.4347L67.2535 27.0869H61.4376V28.426C62.4276 28.426 63.0463 28.4869 63.2937 28.6087C63.665 28.7913 63.9125 29.2782 63.9125 30.1304V48.6347H61.0664V50.1565H69.6664V48.6347C68.5527 48.6347 67.8103 48.5739 67.4391 48.3913C66.8822 48.1478 66.5729 47.5391 66.5729 46.5652V34.8173L72.0175 45.226L76.7196 34.513V48.5739H74.0592V50.0956H83.7729V48.5739C82.4117 48.6347 81.7312 48.6347 81.6693 48.5739Z" fill="#007934"/>
<path d="M59.7674 39.0782V38.5912C59.7674 34.9999 59.025 32.0782 57.5401 29.8869C56.0552 27.6956 54.0135 26.5391 51.6005 26.5391C49.1876 26.5391 47.1458 27.6347 45.6609 29.8869C44.176 32.0782 43.4336 34.9999 43.4336 38.5912V38.713V38.8347C43.4336 42.426 44.176 45.3478 45.6609 47.5391C47.1458 49.7304 49.1876 50.8869 51.6005 50.8869C54.0135 50.8869 56.0552 49.9738 57.6019 47.7217C59.025 45.713 59.4581 42.8521 59.5199 42.7304L59.5818 42.3651H55.9314V42.6695C55.9314 42.6695 55.8696 44.7999 55.189 46.4434C54.1991 48.7565 53.2091 49.0608 52.0336 49.0608C50.7343 49.0608 49.1876 47.8434 48.1976 45.5304C47.3314 43.5217 47.2077 41.2695 47.2077 39.1391H59.025L59.7674 39.0782ZM51.6005 28.426C52.776 28.426 54.1372 29.5825 55.0653 31.8956C55.684 33.4782 55.8696 35.3043 55.9933 37.0695H47.2077C47.3314 35.2434 47.5789 33.4173 48.1358 31.8347C49.0019 29.5217 50.425 28.426 51.6005 28.426Z" fill="#007934"/>
<path d="M79.1328 20.5737C76.0393 23.4954 72.0177 25.0171 67.6867 24.4693C64.4076 24.1041 60.5716 22.1563 59.5198 18.8693C58.3443 15.2171 62.4896 12.965 65.5213 12.6606C68.1198 12.4171 70.9659 12.965 73.4407 13.8171C74.1213 14.0606 74.3069 13.6345 73.5644 13.3911C70.6565 12.3563 67.3155 11.7476 64.222 12.1128C60.6335 12.5998 56.7975 15.3997 58.5299 19.3563C59.9529 22.5215 63.9126 24.2258 67.1918 24.8954C71.9558 25.8693 76.7198 24.3476 80.1846 21.0606C80.4939 20.8171 79.3803 20.3302 79.1328 20.5737ZM82.9069 18.3824C82.6594 18.565 82.4119 18.8084 82.1026 18.9302C82.0407 18.9302 81.9788 18.9911 81.9788 18.9911C81.917 18.9302 81.917 18.8693 81.8551 18.8693C81.6076 18.4432 81.4839 17.9563 81.422 17.4693C81.2983 16.8606 81.2982 16.1911 81.2982 15.5215C83.5256 12.965 83.6493 9.31279 83.2781 6.14758C83.2162 5.78236 82.0407 5.66062 82.1026 5.72149C82.4738 8.82584 82.35 12.0519 80.4321 14.7302C80.4321 14.7911 80.3702 14.7911 80.3702 14.7911C80.3083 14.7911 80.2465 14.7911 80.1846 14.8519C79.5659 14.6693 78.9472 14.4867 78.3285 14.2432C77.8335 14.0606 77.3385 13.7563 77.0911 13.3302C76.7198 12.7215 77.4623 12.1737 77.8954 11.8693C78.2666 11.6258 77.1529 11.078 76.7817 11.3215C74.1213 13.2693 77.7098 14.7911 79.8752 15.3997C78.2047 17.165 75.7918 18.078 73.4407 18.5041C70.0378 19.1128 66.2018 18.8693 62.8608 18.0171C61.9947 17.7737 62.6134 18.3215 63.0465 18.4432C66.5731 19.3563 70.4709 19.5997 74.0594 19.1128C76.2867 18.8084 78.3903 18.078 80.1227 16.678C80.1846 17.2867 80.3083 17.8954 80.5558 18.3824C81.2364 19.965 82.9069 19.965 84.0824 18.9911C84.3918 18.6258 83.2781 18.1389 82.9069 18.3824ZM63.9745 15.5215C63.5414 15.4606 63.6652 15.9476 63.9745 15.9476C64.9644 16.0693 65.7688 16.7389 66.14 17.6519C66.2637 17.8954 66.8824 17.9563 66.7587 17.6519C66.3256 16.4954 65.2119 15.6432 63.9745 15.5215ZM66.8206 22.9476C68.3673 22.7041 69.7903 21.7911 70.5947 20.5128C70.7803 20.2693 70.2234 19.965 70.0378 20.2084C69.2954 21.365 67.9961 22.278 66.6349 22.5215C66.2637 22.5824 66.5112 23.0084 66.8206 22.9476ZM70.0378 17.7737C70.1616 18.0171 70.7803 18.078 70.6565 17.7128C70.0378 16.2519 68.7385 15.1563 67.2536 14.6084C66.8824 14.4867 66.7587 14.9128 67.1299 15.0345C68.3673 15.5215 69.5429 16.4954 70.0378 17.7737ZM71.0277 23.3737C72.7601 22.8258 74.3069 21.5476 75.2349 20.0258C75.4206 19.7824 74.8637 19.478 74.6781 19.7215C73.8119 21.1824 72.3889 22.4606 70.7184 22.9476C70.3472 23.0693 70.7803 23.4954 71.0277 23.3737ZM74.5544 17.1041C73.5644 15.5215 71.8939 14.365 70.1616 13.878C69.7903 13.7563 69.6666 14.1824 70.0378 14.3041C71.6464 14.7911 73.1932 15.8258 74.0594 17.2867C74.1831 17.4693 74.74 17.4084 74.5544 17.1041ZM63.6652 21.3041C64.7788 21.3041 65.8925 20.8171 66.6349 19.965C66.8205 19.7215 66.2637 19.478 66.0781 19.6606C65.4594 20.3911 64.4695 20.878 63.4795 20.8171C63.1083 20.878 63.3558 21.3041 63.6652 21.3041Z" fill="#007934"/>
</svg>
