<svg width="95" height="36" viewBox="0 0 95 36" fill="none" xmlns="http://www.w3.org/2000/svg">
<g clip-path="url(#clip0_2001_363)">
<path fill-rule="evenodd" clip-rule="evenodd" d="M76.7286 0.224121C72.3525 0.420705 68.2095 2.25207 65.1186 5.35612C58.2586 12.2241 58.2586 23.3591 65.1186 30.2271C68.2095 33.3312 72.3525 35.1625 76.7286 35.3591V0.224121ZM89.9626 5.35612C86.8716 2.25231 82.7286 0.420995 78.3526 0.224121V35.3591C82.7286 35.1623 86.8716 33.3309 89.9626 30.2271C96.8226 23.3591 96.8226 12.2241 89.9626 5.35612Z" fill="#3FCFD5"/>
<path fill-rule="evenodd" clip-rule="evenodd" d="M72.2107 15.2121V15.5891C72.2107 16.5661 72.0227 17.3201 70.7887 18.7941L68.3027 21.7941H72.3317V23.0441H66.5547V21.9301L69.9827 17.5941C70.6337 16.7711 70.7537 16.4121 70.7537 15.6061V15.2981C70.7537 14.2011 70.2237 13.7721 68.9717 13.7721C68.3027 13.7721 67.4117 13.9611 66.8117 14.1491V12.8981C67.5667 12.6921 68.3717 12.5381 68.9717 12.5381C71.1997 12.5381 72.2107 13.4461 72.2107 15.2121ZM83.0597 19.6341H86.1797V14.4061L83.0597 19.6341ZM87.5847 19.6341H88.6307V20.8341H87.5847V23.0441H86.1617V20.8341H81.5007V19.8221L85.9217 12.7431H87.5847V19.6331V19.6341Z" fill="white"/>
<path fill-rule="evenodd" clip-rule="evenodd" d="M2.27008 23.6402H8.20308V25.3522H0.330078V10.4072H2.27008V23.6402ZM16.8471 25.3522H18.7871V10.4072H16.8471V25.3522ZM34.2731 17.6402L40.5931 25.3522H38.1071L32.2651 18.0282V25.3522H30.3261V10.4072H32.2661V17.6172L37.8321 10.4072H40.0001L34.2731 17.6402ZM48.1141 25.3522H50.0531V10.4072H48.1131L48.1141 25.3522Z" fill="black"/>
</g>
<defs>
<clipPath id="clip0_2001_363">
<rect width="95" height="36" fill="white"/>
</clipPath>
</defs>
</svg>
