<svg width="24" height="24" viewBox="0 0 24 24" fill="none" xmlns="http://www.w3.org/2000/svg">
<path d="M23.5832 21.4688L18.9697 16.8783C20.3679 15.0571 21.1348 12.8481 21.1351 10.517C21.1351 7.7079 20.0355 5.06672 18.0389 3.0804C16.0425 1.09407 13.3884 0 10.5648 0C7.7416 0 5.08715 1.09407 3.09084 3.0804C-1.03028 7.18125 -1.03028 13.8535 3.09084 17.9537C5.08715 19.9403 7.7416 21.0344 10.5648 21.0344C12.9076 21.0341 15.1277 20.2711 16.9581 18.8799L21.5716 23.4703C21.8491 23.7468 22.2135 23.885 22.5774 23.885C22.9414 23.885 23.3057 23.7468 23.5832 23.4703C24.1389 22.9177 24.1389 22.0213 23.5832 21.4688ZM5.10243 15.9521C2.0906 12.9554 2.09095 8.07904 5.10243 5.08193C6.56146 3.63054 8.50151 2.8309 10.5648 2.8309C12.6285 2.8309 14.5682 3.63054 16.0273 5.08193C17.4863 6.53366 18.29 8.464 18.29 10.517C18.29 12.5704 17.4863 14.5004 16.0273 15.9521C14.5682 17.4039 12.6285 18.2035 10.5648 18.2035C8.50151 18.2035 6.56146 17.4039 5.10243 15.9521Z" fill="#383838"/>
</svg>
