<svg width="81" height="64" viewBox="0 0 81 64" fill="none" xmlns="http://www.w3.org/2000/svg">
<path fill-rule="evenodd" clip-rule="evenodd" d="M32.3751 5.52268C32.362 5.52489 32.3489 5.52726 32.3357 5.5298C29.8997 5.96574 27.5659 6.58871 25.3652 7.37563C22.1817 1.95718 17.4346 0.10118 17.4346 0.10118C16.8223 -0.142478 16.1221 0.0652329 15.7439 0.602737C11.6547 6.41525 11.6153 16.0296 11.6153 16.0296L11.6245 16.1978C9.63209 18.3987 8.10042 20.8344 7.11885 23.4326C4.35613 23.4312 2.40525 23.9966 2.40525 23.9966C1.65289 24.215 1.22021 25 1.4397 25.7488C1.65902 26.4974 2.4482 26.9279 3.20057 26.7095C3.20057 26.7095 4.43946 26.3494 6.28519 26.2585C6.00623 27.5597 5.86172 28.8921 5.86172 30.2481C5.86172 30.2732 5.86189 30.2981 5.86189 30.3227C2.66633 30.9051 0.70778 32.05 0.70778 32.05C0.029711 32.4411 -0.201538 33.3064 0.191603 33.9811C0.584913 34.6558 1.45453 34.8859 2.1326 34.4945C2.1326 34.4945 3.62438 33.6471 6.08564 33.1567C6.28843 34.465 6.62636 35.7443 7.09005 36.9867C4.08978 38.5146 1.98877 41.0156 1.98877 41.0156C1.4869 41.6147 1.56819 42.5064 2.17009 43.0057C2.77215 43.5051 3.66835 43.4242 4.17021 42.8252C4.17021 42.8252 5.84775 40.8167 8.2584 39.5638C9.39044 41.674 10.8977 43.6489 12.7256 45.4447C15.8368 48.5012 19.8877 51.0385 24.5725 52.8244C24.6333 53.9986 24.7485 56.2694 24.5051 58.4938C24.4071 59.39 23.916 61.1456 23.6999 62.1311C23.5331 62.8931 24.0193 63.6466 24.7851 63.8126C25.5508 63.9787 26.3081 63.495 26.4751 62.733C26.7084 61.6682 27.2227 59.7679 27.3287 58.7995C27.5158 57.0889 27.5063 55.1498 27.4642 53.8062C31.5266 55.0226 35.9791 55.6963 40.6486 55.6963C44.1349 55.6963 47.5004 55.3209 50.6739 54.6238C50.6307 57.137 51.2965 58.6946 51.6492 59.9899C51.8542 60.7425 52.6349 61.188 53.3913 60.984C54.1478 60.78 54.5955 60.0033 54.3905 59.2506C54.0551 58.0192 53.3354 56.5139 53.5544 53.8886C59.5872 52.1267 64.7779 49.1718 68.5716 45.4447C70.357 43.6906 71.8366 41.7656 72.9594 39.7107C75.2232 40.9678 76.7756 42.8252 76.7756 42.8252C77.2775 43.4242 78.1737 43.5051 78.7757 43.0057C79.3776 42.5064 79.4589 41.6147 78.957 41.0156C78.957 41.0156 76.9919 38.6748 74.1492 37.1402C74.634 35.8724 74.9878 34.5656 75.2003 33.2281C77.4579 33.7245 78.8132 34.4945 78.8132 34.4945C79.4913 34.8859 80.3609 34.6558 80.7542 33.9811C81.1474 33.3064 80.9161 32.4411 80.238 32.05C80.238 32.05 78.4228 30.9889 75.4348 30.3898C75.4352 30.3423 75.4353 30.2952 75.4353 30.2481C75.4353 28.899 75.2925 27.5736 75.0166 26.2797C76.6638 26.3952 77.7453 26.7095 77.7453 26.7095C78.4976 26.9279 79.2868 26.4974 79.5061 25.7488C79.7256 25 79.2929 24.215 78.5406 23.9966C78.5406 23.9966 76.7545 23.4791 74.1796 23.4355C73.296 21.0956 71.9666 18.8881 70.257 16.8656L70.3153 16.1417C70.3182 16.1044 70.3197 16.0671 70.3197 16.0296C70.3197 16.0296 70.2804 6.41525 66.1911 0.602737C65.813 0.0652329 65.1128 -0.142478 64.5005 0.10118C64.5005 0.10118 59.6417 2.00093 56.4582 7.56791C51.7227 5.8011 46.3465 4.80002 40.6486 4.80002C37.7969 4.80002 35.026 5.05063 32.3751 5.52268Z" fill="#7EA68C"/>
<path fill-rule="evenodd" clip-rule="evenodd" d="M31.7113 8.52854C29.4368 8.99975 27.2657 9.64627 25.2279 10.4471C24.542 10.7165 23.7629 10.419 23.4347 9.76191C21.6063 6.10332 18.8854 4.12049 17.4142 3.25879C14.5763 8.2135 14.4604 15.254 14.456 15.972L14.5075 16.5804C14.5414 16.9811 14.402 17.3772 14.1244 17.6695C12.3925 19.4931 11.0198 21.5077 10.0889 23.6616C11.983 23.96 14.0327 24.5936 15.9957 25.8028C16.662 26.2133 16.8682 27.0848 16.4556 27.748C16.0431 28.4109 15.1671 28.6161 14.5007 28.2056C12.7246 27.1116 10.8632 26.585 9.17478 26.3674C8.88338 27.5509 8.72251 28.7667 8.7041 30.0075C10.3554 29.9402 12.2013 30.0648 14.1844 30.5196C14.9482 30.6947 15.4253 31.4539 15.2491 32.2138C15.0731 32.9738 14.3101 33.4486 13.5464 33.2734C11.8688 32.8885 10.3065 32.7783 8.90962 32.828C9.54679 36.7665 11.6216 40.3885 14.7213 43.4338C20.567 49.1766 30.0146 52.8703 40.6489 52.8703C51.2831 52.8703 60.7307 49.1766 66.5764 43.4338C69.6721 40.3925 71.7455 36.7763 72.3855 32.8437C70.9021 32.7617 69.2188 32.8561 67.4 33.2734C66.6362 33.4486 65.8732 32.9738 65.6972 32.2138C65.521 31.4539 65.9981 30.6947 66.7619 30.5196C68.8876 30.0319 70.8559 29.9241 72.5939 30.0248C72.5766 28.7641 72.4121 27.5291 72.113 26.3272C70.3367 26.5159 68.3423 27.0373 66.4457 28.2056C65.7792 28.6161 64.9032 28.4109 64.4907 27.748C64.0781 27.0848 64.2843 26.2133 64.9506 25.8028C67.0278 24.5234 69.2019 23.8883 71.1877 23.6126C70.3598 21.7125 69.1883 19.9216 67.7299 18.276C67.4753 17.9888 67.3488 17.6112 67.3793 17.2295C67.3793 17.2295 67.4795 15.9753 67.4795 15.9712C67.4753 15.2596 67.3603 8.21536 64.5214 3.25879C63.0243 4.13575 60.2326 6.17403 58.4041 9.95894C58.0779 10.634 57.279 10.9387 56.5829 10.6531C54.9169 9.96963 53.1581 9.39041 51.3238 8.92751C51.1425 9.45128 50.7533 10.8827 50.8959 13.2223C50.9434 14.0007 50.3468 14.6712 49.5645 14.7183C48.7821 14.7656 48.1085 14.172 48.0609 13.3935C47.9111 10.9363 48.1671 9.33632 48.4968 8.31778C46.769 8.00697 44.9862 7.79655 43.1616 7.69532L43.2175 14.8857C43.2236 15.6655 42.5922 16.3035 41.8085 16.3096C41.0246 16.3156 40.3835 15.6874 40.3774 14.9075L40.3208 7.62716C38.343 7.6414 36.4076 7.78349 34.5294 8.04309C34.8283 9.32089 35.0602 11.329 34.9194 14.4104C34.8838 15.1895 34.2192 15.7932 33.4363 15.7577C32.6533 15.7225 32.0466 15.0612 32.0822 14.282C32.2204 11.2557 31.9389 9.45094 31.7113 8.52854Z" fill="#FAFAFA"/>
<path fill-rule="evenodd" clip-rule="evenodd" d="M40.001 29.3649L38.5711 27.9619C38.1785 27.5767 38.0938 27.0405 38.354 26.5863C38.6142 26.1322 39.1722 25.8421 39.7856 25.8419H43.0567C43.67 25.8421 44.2281 26.1322 44.4882 26.5863C44.7484 27.0405 44.6637 27.5767 44.2711 27.9619L42.8411 29.3649V31.6412L45.2871 36.388C45.6446 37.082 45.3687 37.9344 44.6712 38.2902C43.9737 38.6459 43.1172 38.3714 42.7597 37.6774L41.3105 34.8647L39.5598 37.761C39.156 38.4292 38.2828 38.6455 37.611 38.2437C36.9394 37.8417 36.722 36.9728 37.126 36.3044L40.001 31.5476V29.3649Z" fill="#7EA68C"/>
<path d="M31.6073 31.3014C34.0159 31.3014 35.9685 29.3586 35.9685 26.9621C35.9685 24.5655 34.0159 22.6227 31.6073 22.6227C29.1987 22.6227 27.2461 24.5655 27.2461 26.9621C27.2461 29.3586 29.1987 31.3014 31.6073 31.3014Z" fill="#7EA68C"/>
<path d="M50.9071 31.3014C53.3157 31.3014 55.2683 29.3586 55.2683 26.9621C55.2683 24.5655 53.3157 22.6227 50.9071 22.6227C48.4985 22.6227 46.5459 24.5655 46.5459 26.9621C46.5459 29.3586 48.4985 31.3014 50.9071 31.3014Z" fill="#7EA68C"/>
<path d="M31.6069 28.4754C32.4468 28.4754 33.1278 27.7978 33.1278 26.9621C33.1278 26.1263 32.4468 25.4487 31.6069 25.4487C30.7669 25.4487 30.0859 26.1263 30.0859 26.9621C30.0859 27.7978 30.7669 28.4754 31.6069 28.4754Z" fill="white"/>
<path d="M50.9076 28.4754C51.7476 28.4754 52.4286 27.7978 52.4286 26.9621C52.4286 26.1263 51.7476 25.4487 50.9076 25.4487C50.0677 25.4487 49.3867 26.1263 49.3867 26.9621C49.3867 27.7978 50.0677 28.4754 50.9076 28.4754Z" fill="white"/>
</svg>
