<svg width="66" height="72" viewBox="0 0 66 72" fill="none" xmlns="http://www.w3.org/2000/svg">
<path d="M38.6801 41.3697C44.8721 41.3697 50.1038 39.5442 54.3178 35.8932C66.8164 25.0829 65.6411 2.32126 65.5838 1.35146C65.5408 0.666903 65.0104 0.0964372 64.3224 0.0108673C63.6488 -0.0747026 62.9894 0.353147 62.7744 1.00918C62.4018 2.1929 58.2164 3.17695 54.5184 4.03265C46.7928 5.82962 36.2004 8.28263 31.1838 16.7683C27.9014 22.3161 27.5574 29.7892 30.0944 38.9452C28.0304 43.7086 26.7691 48.7715 26.0238 53.4208C25.6224 52.0516 25.1494 50.6683 24.5761 49.3277C26.2388 43.1952 25.9808 38.175 23.7591 34.41C20.3334 28.5912 13.1811 26.9369 7.96377 25.7246C6.05744 25.2825 3.17644 24.6122 2.84677 24.056C2.64611 23.4 1.98677 22.9721 1.29877 23.0577C0.610772 23.1433 0.0804385 23.6995 0.0374385 24.3983C-0.00556148 25.0543 -0.793895 40.3856 7.6771 47.7161C10.5581 50.2119 14.1414 51.4669 18.3698 51.4669C19.5738 51.4669 20.8638 51.3386 22.1681 51.1246C24.1031 56.0021 24.7768 61.3074 24.9774 65.0583C24.9344 67.1975 24.9774 68.8946 25.0204 69.9072V70.0499C25.0778 70.549 25.3931 70.9626 25.8088 71.1765L25.8231 71.1908C25.9521 71.2478 26.0811 71.2906 26.2244 71.3049C26.2674 71.3191 26.3104 71.3334 26.3534 71.3477H26.4538H26.4681H26.5398C26.5828 71.3477 26.6114 71.3191 26.6401 71.3191C27.2851 71.2336 27.8154 70.7344 27.8871 70.0641C27.8871 70.0071 27.8871 69.9643 27.8871 69.9072C27.9301 69.0087 27.9588 67.2546 27.8441 65.0012C28.0018 59.2538 28.8761 49.5558 32.4594 40.8277C34.6524 41.17 36.7164 41.3697 38.6801 41.3697ZM9.58344 45.5483C4.16544 40.8562 3.10477 31.8429 2.93277 27.3077C4.12244 27.764 5.62744 28.1063 7.33311 28.5056C12.3068 29.6608 18.4988 31.087 21.2938 35.8504C22.7271 38.2891 23.1284 41.4838 22.5121 45.3629C20.8064 42.6389 18.5704 40.243 15.6321 38.5173C14.9584 38.118 14.0698 38.3462 13.6684 39.0165C13.2671 39.6868 13.4964 40.571 14.1701 40.9703C17.1658 42.7388 19.3444 45.4057 20.9354 48.4007C16.2914 48.9854 12.4644 48.0299 9.58344 45.5483ZM33.6778 18.223C38.0638 10.7784 47.9538 8.49655 55.1778 6.81368C58.2738 6.10059 60.8968 5.48734 62.7458 4.60312C62.6168 11.0636 61.3124 26.0669 52.4401 33.7397C47.7388 37.8185 41.4321 39.2589 33.7208 38.0895C36.2004 33.0836 39.6978 28.6055 44.6571 25.6818C45.3451 25.2825 45.5601 24.4126 45.1588 23.728C44.7574 23.0434 43.8831 22.8295 43.1951 23.2288C38.2931 26.1097 34.7098 30.2884 32.0724 34.9662C30.6534 28.0778 31.1838 22.4587 33.6778 18.223Z" fill="#7EA68C"/>
</svg>
