<svg width="82" height="82" viewBox="0 0 82 82" fill="none" xmlns="http://www.w3.org/2000/svg">
<g clip-path="url(#clip0_2051_155)">
<path d="M64.0312 0C58.229 0 52.839 5.13886 49.4986 13.7761C46.0393 11.0334 41.6781 9.38279 36.9311 9.38279C25.9478 9.38279 16.9976 18.1609 16.6776 29.0675C16.227 29.0269 15.7733 28.9987 15.3125 28.9987C7.02888 28.9987 0.291016 35.7366 0.291016 44.0187C0.291016 51.9558 6.48206 58.4566 14.287 58.9878V79.9492H11.6585C11.0913 79.9492 10.6329 80.4077 10.6329 80.9748C10.6329 81.5412 11.0913 81.9996 11.6585 81.9996H18.9658C19.533 81.9996 19.9914 81.5412 19.9914 80.9748C19.9914 80.4077 19.533 79.9492 18.9658 79.9492H16.3373V58.9878C22.5878 58.5622 27.8018 54.312 29.63 48.5528C31.7625 49.3813 33.985 49.8397 36.2638 49.9148V79.9492H33.6353C33.069 79.9492 32.6105 80.4077 32.6105 80.9748C32.6105 81.5412 33.069 81.9996 33.6353 81.9996H40.9435C41.5099 81.9996 41.9683 81.5412 41.9683 80.9748C41.9683 80.4077 41.5099 79.9492 40.9435 79.9492H38.315V49.8796C41.7383 49.6465 44.9261 48.5653 47.6774 46.8373C50.3959 58.2423 56.2873 65.7554 63.0056 66.454V79.9492H60.3779C59.8115 79.9492 59.3523 80.4077 59.3523 80.9748C59.3523 81.5412 59.8115 81.9996 60.3779 81.9996H67.6861C68.2525 81.9996 68.7109 81.5412 68.7109 80.9748C68.7109 80.4077 68.2525 79.9492 67.6861 79.9492H65.056V66.4696C74.5992 65.5129 81.9324 51.2736 81.9324 33.2622C81.9324 14.61 74.0696 0 64.0312 0ZM16.3373 56.9366V52.7772L22.616 46.4985C23.0165 46.098 23.0165 45.4495 22.616 45.049C22.2155 44.6484 21.5662 44.6484 21.1656 45.049L16.3373 49.8772V41.0342C16.3373 40.4679 15.8789 40.0094 15.3125 40.0094C14.7454 40.0094 14.287 40.4679 14.287 41.0342V49.8772L9.45867 45.049C9.05814 44.6484 8.40884 44.6484 8.00831 45.049C7.60777 45.4495 7.60777 46.098 8.00831 46.4985L14.287 52.7772V56.9366C7.61403 56.4109 2.34218 50.8238 2.34218 44.0187C2.34218 36.867 8.16085 31.0491 15.3125 31.0491C22.4635 31.0491 28.2821 36.867 28.2821 44.0187C28.2821 50.8238 23.0103 56.4109 16.3373 56.9366ZM38.315 42.0496L47.0673 33.2982C47.4678 32.8976 47.4678 32.2491 47.0673 31.8486C46.6667 31.4481 46.0182 31.4481 45.6177 31.8486L38.315 39.1505V26.1739C38.315 25.6067 37.8558 25.1483 37.2894 25.1483C36.7223 25.1483 36.2638 25.6067 36.2638 26.1739V39.1497L28.9619 31.8486C28.5614 31.4481 27.9129 31.4481 27.5124 31.8486C27.1118 32.2491 27.1118 32.8976 27.5124 33.2982L36.2638 42.0496V47.8644C34.1462 47.787 32.0809 47.345 30.1041 46.5423C30.2441 45.7202 30.3333 44.88 30.3333 44.0187C30.3333 36.9069 25.3595 30.9474 18.7108 29.4008C18.8548 19.4712 26.9671 11.4332 36.9311 11.4332C46.9843 11.4332 55.1632 19.6128 55.1632 29.6668C55.1632 39.253 47.722 47.1165 38.315 47.8284V42.0496ZM65.056 64.4012V57.9309L69.6895 53.2966C70.0901 52.8961 70.0901 52.2476 69.6895 51.847C69.289 51.4465 68.6397 51.4465 68.2392 51.847L65.056 55.031V49.3774L69.6895 44.7439C70.0901 44.3433 70.0901 43.694 69.6895 43.2935C69.289 42.893 68.6397 42.893 68.2392 43.2935L65.056 46.4774V39.7787C65.056 39.2123 64.5976 38.7539 64.0312 38.7539C63.4641 38.7539 63.0056 39.2123 63.0056 39.7787V46.4774L59.8217 43.2935C59.4212 42.893 58.7719 42.893 58.3713 43.2935C57.9708 43.694 57.9708 44.3433 58.3713 44.7439L63.0056 49.3774V55.031L59.8217 51.847C59.4212 51.4465 58.7719 51.4465 58.3713 51.847C57.9708 52.2476 57.9708 52.8961 58.3713 53.2966L63.0056 57.9309V64.3981C57.115 63.6424 51.8783 56.4281 49.4783 45.5715C54.1806 41.8533 57.2136 36.1129 57.2136 29.6668C57.2136 24.0124 54.8831 18.8962 51.1391 15.214C54.1454 6.97099 58.9628 2.05038 64.0312 2.05038C72.7717 2.05038 79.882 16.0526 79.882 33.2622C79.882 49.7935 73.3201 63.3561 65.056 64.4012Z" fill="#7EA68C"/>
</g>
<defs>
<clipPath id="clip0_2051_155">
<rect width="82" height="82" fill="white"/>
</clipPath>
</defs>
</svg>
